# xmcd
#
# Track frame offsets: 
#        150
#        18280
#        36166
#        52873
#        74714
#        92294
#        110918
#        126626
#        141964
#        156627
#
# Disc length: 2305 seconds
#
# Revision: 0
# Processed by: cddbd v1.5.2PL0 Copyright (c) Steve Scherf et al.
# Submitted via: ExactAudioCopy v1.1
#
DISCID=9308ff0a
DTITLE=Rod Picott - Tiger Tom Dixon's Blues - 10th Year Anniversary
DYEAR=2010
DGENRE=Americana
TTITLE0=Tiger Tom Dixon's Blues
TTITLE1=Broke Down
TTITLE2=Bring It On
TTITLE3=Haunted Man
TTITLE4=On and On
TTITLE5=Torn in Two
TTITLE6=All About You
TTITLE7=Not That Strong
TTITLE8=Gettin' to Me
TTITLE9=You Don't Know
EXTD=
EXTT0=
EXTT1=
EXTT2=
EXTT3=
EXTT4=
EXTT5=
EXTT6=
EXTT7=
EXTT8=
EXTT9=
PLAYORDER=
